<?xml version="1.0" encoding="UTF-8"?>
<svg xmlns="http://www.w3.org/2000/svg" viewBox="0 0 960 480" role="img" aria-labelledby="t d">
  <title id="t">The Select pipeline applied to four different corpora</title>
  <desc id="d">A hand-drawn matrix with four columns — documents, tool schemas, memory rows, and labelled examples — and four rows describing how the same pipeline adapts to each. The corpus item is a document chunk, a tool schema, a memory row, or a labelled example. The query is built from the rewritten user turn for documents and tools, from the intent of the turn for memory, and from the query filtered by label class for examples. Re-ranking scores on relevance alone for documents and tools, on relevance with recency and confidence for memory, and on relevance with diversity through maximal marginal relevance for examples. Packing takes three to five bookended chunks, the handful of schemas that fit, memory's five to ten per cent share, or two or three distinct examples.</desc>

  <style><![CDATA[
    :root{--ce-bg:#FAFAF7;--ce-surface:#FFFFFF;--ce-ink:#1A1A1A;--ce-ink-muted:#5C5C5C;--ce-ink-subtle:#9A9A9A;--ce-border:#D9D9D4;--ce-primary:#5B7FBF;--ce-accent:#D98E5F;--ce-success:#5C9E78;--ce-warn:#B8895A;--ce-alert:#C66B5E;--ce-neutral-1:#EAEAE4;--ce-neutral-2:#CFCFC8;--ce-neutral-3:#8E8E88;--ce-on-fill:#FFFDF9;--ce-on-accent:#1A1A1A;}
    @media (prefers-color-scheme:dark){:root{--ce-bg:#0E0F12;--ce-surface:#16181C;--ce-ink:#F2F2EE;--ce-ink-muted:#B4B4AE;--ce-ink-subtle:#6E6E68;--ce-border:#2A2D33;--ce-primary:#8BA8E0;--ce-accent:#E8B088;--ce-success:#7FBF9B;--ce-warn:#D4B58A;--ce-alert:#D88880;--ce-neutral-1:#1F2229;--ce-neutral-2:#2C3038;--ce-neutral-3:#6E6E68;--ce-on-fill:#14161A;--ce-on-accent:#1A1A1A;}}
    .bg{fill:var(--ce-bg);}
    text{dominant-baseline:auto;}
  ]]></style>

  <rect class="bg" width="960" height="480"/>
<text xml:space="preserve" x="40" y="38.24" text-anchor="start" font-family='"Excalifont","Virgil","Segoe Print","Comic Sans MS",ui-rounded,cursive' font-size="22" fill="var(--ce-ink)">The same four boxes, four times over</text><text xml:space="preserve" x="40" y="61.96" text-anchor="start" font-family='"Excalifont","Virgil","Segoe Print","Comic Sans MS",ui-rounded,cursive' font-size="13" fill="var(--ce-ink-muted)">Swap the corpus and tune the parameters. The engineering questions do not change.</text><g opacity="0.34"><path d="M198.96 93.21C258.92 92.82 316.67 92.96 356.34 92.1C359.86 94.47 360.73 93.4 359.43 95.95C364.4 102.8 359.78 111.45 363.93 116.7C364.59 119.99 359.18 124.43 355.76 120.58C298.37 120.81 238.65 123.92 198.08 123.15C195.59 123.41 193.75 118.35 193.35 115.34C192.82 112.37 193.45 102.03 192.47 98.13C191.17 93 194.2 92.47 195.36 92.12C197 92 197 92 197 92" fill="var(--ce-primary)" stroke="none"/><path d="M196.27 90.89C246.66 94.1 297.63 91.77 357.98 93.05M197.99 92.67C229.93 92.78 264.63 91.4 356.67 91.46M357 92C358.63 92.19 363.28 95.25 362.09 95.31M358.5 93.94C361.92 91.4 360.5 95.74 360.79 99.06M362.14 96.12C362.44 100.31 363.08 105.5 363.57 115.18M362.6 96.64C362.56 103.79 362.97 109.1 362.71 116.66M362 117C363.04 119.06 361.66 123.44 356.18 121.25M361.16 116.88C361.78 120.34 359.99 122.92 357.88 119.73M356.2 123.06C295.23 120.19 229.3 122.06 195.02 123.08M356.41 122.66C302.48 123.53 247.2 122.84 197.4 122.47M197 122C192.47 120.56 193.78 119.03 194 116.68M198.94 122.38C193.45 121.43 192.56 119.81 193.17 119.02M190.39 117.47C191.18 110.65 190.13 105.94 193.6 96.92M191.57 117.81C191.16 111.72 191.26 106.74 192.79 96.14M192 97C190.85 94.3 194.86 93.75 196 90.57M190.19 97.77C192.93 95.64 195.74 91.09 197.38 92.88M197 92C197 92 197 92 197 92M197 92C197 92 197 92 197 92" fill="none" stroke="var(--ce-ink)" stroke-width="1.2" stroke-linecap="round" stroke-linejoin="round"/></g><text xml:space="preserve" x="277" y="109.04" text-anchor="middle" font-family='"Excalifont","Virgil","Segoe Print","Comic Sans MS",ui-rounded,cursive' font-size="12" fill="var(--ce-ink)">Documents</text><g opacity="0.34"><path d="M384.2 90.84C431.92 91.15 482.44 94.29 544.2 90.28C547.76 92.89 546.64 95.01 550.28 94.42C546.09 104.92 546.7 110.78 546.1 117.65C548.9 121.02 547.76 124.4 541.08 119.42C510.52 121.21 474.42 121.67 382.71 120.65C378.84 123.27 377.08 119.58 376.24 115.39C376.77 107.87 378.23 100.54 380.49 99.46C379.67 92.15 378.77 91.75 381.03 93.78C383 92 383 92 383 92" fill="var(--ce-accent)" stroke="none"/><path d="M383.61 92.9C443.79 89.46 507.18 90.48 543.02 90.86M382.42 91.38C443.38 93.01 503.71 93.15 542.71 92.56M543 92C546.03 90.51 549.75 91.7 548.12 97.81M541.33 90.94C546.95 92.59 545.82 93.91 548.12 98.48M547.06 96.12C549.39 101.78 546.55 108.39 549.12 118.95M548 96.26C547.74 100.96 547.42 106.68 547.91 117.47M548 117C549.56 119.78 547.31 121.25 542.2 120.4M549.33 118.34C548.58 119.27 548.41 122.95 541.26 120.16M543.13 121.15C499.8 122.85 457.43 120.99 384.73 122.14M542.86 121.08C504.9 123.4 467.47 122.45 382.43 122.09M383 122C380.44 121.3 377.57 118.75 378.96 116.15M384.8 121.25C381.37 122.95 379.66 121.77 379.51 115.09M378.09 118.48C380.15 110.1 378.56 105.9 377.12 96.16M378.69 116.22C377.56 112.93 378.49 108.58 377.81 97.83M378 97C379.1 92.39 381.53 90.85 381.1 91.53M376.18 98.15C376.33 93.75 378.12 92.55 381.37 93.46M383 92C383 92 383 92 383 92M383 92C383 92 383 92 383 92" fill="none" stroke="var(--ce-ink)" stroke-width="1.2" stroke-linecap="round" stroke-linejoin="round"/></g><text xml:space="preserve" x="463" y="109.04" text-anchor="middle" font-family='"Excalifont","Virgil","Segoe Print","Comic Sans MS",ui-rounded,cursive' font-size="12" fill="var(--ce-ink)">Tool schemas</text><g opacity="0.34"><path d="M569.43 93.67C610.11 94.67 648.2 90.42 726.86 93.66C730.46 91.31 732.54 91.42 735.93 98.09C733.19 103.05 733.83 107.3 733.47 118.6C733.21 122.04 731.13 124.36 726.4 123.47C685.48 121.6 641 119.42 567.35 123.34C567.29 123.14 565.61 120.82 564.34 115.44C565.71 112.57 562.81 107.05 563.3 95.59C562.96 91.29 563.34 91.03 566.71 90.23C569 92 569 92 569 92" fill="var(--ce-warn)" stroke="none"/><path d="M570.95 90.91C608.92 92.35 648.72 92.7 728.07 92.67M568.86 92.09C624.84 93.23 680.8 92.9 728.74 91.66M729 92C733.43 92.83 732.22 92.16 734.15 96.31M728.16 91.94C731.98 93.79 735.74 92.08 735.45 97.9M735.97 96.12C732.79 103.25 734.46 111.28 734.66 118.72M733.41 97.89C732.93 104.13 733.86 110.25 733.1 116.27M734 117C732.08 120.5 732.96 123.07 728.22 123.54M733.5 115.8C735.37 118.2 732.24 122.98 729.24 120.58M730.07 123.24C672.36 125.03 617.56 123.44 570.44 121.21M729.31 121.5C677.31 123.28 623.73 124.07 569.46 121.71M569 122C564.41 122.05 565.35 118.48 563.92 115.62M570.67 120.12C564.69 119.86 562.15 119.14 565.85 115.76M565.79 115.48C564.68 109.55 562.56 101.85 564.64 95.4M563.81 116.63C563.97 110.15 563.72 102.43 564.84 97.52M564 97C563.36 94.48 564.2 91.94 570.2 92.49M562.17 98.52C564.32 91.87 565.11 94.02 569.96 94.03M569 92C569 92 569 92 569 92M569 92C569 92 569 92 569 92" fill="none" stroke="var(--ce-ink)" stroke-width="1.2" stroke-linecap="round" stroke-linejoin="round"/></g><text xml:space="preserve" x="649" y="109.04" text-anchor="middle" font-family='"Excalifont","Virgil","Segoe Print","Comic Sans MS",ui-rounded,cursive' font-size="12" fill="var(--ce-ink)">Memory rows</text><g opacity="0.34"><path d="M754.67 91.3C815.1 92.99 877.97 91.76 914.72 91.84C918.36 89.74 918.44 93.03 921.57 96.55C920.08 105.17 920.75 111.83 920.84 119.56C917.52 117.87 919.71 124.33 916.93 122.31C860.43 122 812.78 122.38 757.19 120.84C750.53 123 748.94 122.06 752.43 115.49C749.44 113.28 747.38 105.56 751.31 96.91C751.46 95.64 753.11 90.3 757.58 91.88C755 92 755 92 755 92" fill="var(--ce-success)" stroke="none"/><path d="M754.29 92.91C806.06 91.23 858.27 90.92 913.12 90.48M755.29 92.81C806.29 91.94 857.88 91.13 914.77 92.76M915 92C916.82 91.15 918.7 92.61 920.18 98.81M914.99 92.93C917.01 90.38 921.06 94.85 918.17 97.32M920.89 96.11C919.75 100.72 917.94 106.17 920.2 118.49M920.81 97.51C920.11 101.3 920.31 107.83 920.3 117.08M920 117C918.61 121.23 918.62 120.89 914.24 122.69M921.67 117.26C922.17 121.74 916.07 123 917.21 121.01M913 121.34C880.93 123.7 845.69 122.37 756.15 120.27M915.76 121.92C879.72 123.16 843.99 123.69 754.49 121.34M755 122C752.38 122.79 749.13 122.2 748.89 115.09M756.53 122.99C752.61 121.37 749.25 121.1 752.19 116.43M749.48 116.48C749.22 113 750.56 105.81 748.16 98.64M750.93 117.04C750.38 109.37 750.94 102.27 749.86 97.21M750 97C751.61 92.56 750.87 93.04 755.3 93.46M748.16 98.9C747.72 94.58 752.1 90.88 753.94 90.01M755 92C755 92 755 92 755 92M755 92C755 92 755 92 755 92" fill="none" stroke="var(--ce-ink)" stroke-width="1.2" stroke-linecap="round" stroke-linejoin="round"/></g><text xml:space="preserve" x="835" y="109.04" text-anchor="middle" font-family='"Excalifont","Virgil","Segoe Print","Comic Sans MS",ui-rounded,cursive' font-size="12" fill="var(--ce-ink)">Labelled examples</text><text xml:space="preserve" x="180" y="154.12" text-anchor="end" font-family='"Excalifont","Virgil","Segoe Print","Comic Sans MS",ui-rounded,cursive' font-size="11" fill="var(--ce-ink-subtle)">Corpus item</text><text xml:space="preserve" x="204" y="154.12" text-anchor="start" font-family='"Excalifont","Virgil","Segoe Print","Comic Sans MS",ui-rounded,cursive' font-size="11" fill="var(--ce-ink)">one document chunk</text><text xml:space="preserve" x="390" y="154.12" text-anchor="start" font-family='"Excalifont","Virgil","Segoe Print","Comic Sans MS",ui-rounded,cursive' font-size="11" fill="var(--ce-ink)">one tool schema</text><text xml:space="preserve" x="576" y="154.12" text-anchor="start" font-family='"Excalifont","Virgil","Segoe Print","Comic Sans MS",ui-rounded,cursive' font-size="11" fill="var(--ce-ink)">one memory row</text><text xml:space="preserve" x="762" y="154.12" text-anchor="start" font-family='"Excalifont","Virgil","Segoe Print","Comic Sans MS",ui-rounded,cursive' font-size="11" fill="var(--ce-ink)">one labelled example</text><path d="M40.24 204.23C369.23 205.07 698.42 205.24 920.09 204.1M39.98 203.92C323.46 203 606.67 203.06 920.11 204.07" fill="none" stroke="var(--ce-border)" stroke-width="1" stroke-linecap="round" stroke-linejoin="round"/><text xml:space="preserve" x="180" y="230.12" text-anchor="end" font-family='"Excalifont","Virgil","Segoe Print","Comic Sans MS",ui-rounded,cursive' font-size="11" fill="var(--ce-ink-subtle)">Query built from</text><text xml:space="preserve" x="204" y="230.12" text-anchor="start" font-family='"Excalifont","Virgil","Segoe Print","Comic Sans MS",ui-rounded,cursive' font-size="11" fill="var(--ce-ink)">the rewritten</text><text xml:space="preserve" x="204" y="243.87" text-anchor="start" font-family='"Excalifont","Virgil","Segoe Print","Comic Sans MS",ui-rounded,cursive' font-size="11" fill="var(--ce-ink)">user turn</text><text xml:space="preserve" x="390" y="230.12" text-anchor="start" font-family='"Excalifont","Virgil","Segoe Print","Comic Sans MS",ui-rounded,cursive' font-size="11" fill="var(--ce-ink)">the rewritten</text><text xml:space="preserve" x="390" y="243.87" text-anchor="start" font-family='"Excalifont","Virgil","Segoe Print","Comic Sans MS",ui-rounded,cursive' font-size="11" fill="var(--ce-ink)">user turn</text><text xml:space="preserve" x="576" y="230.12" text-anchor="start" font-family='"Excalifont","Virgil","Segoe Print","Comic Sans MS",ui-rounded,cursive' font-size="11" fill="var(--ce-ink)">the intent of</text><text xml:space="preserve" x="576" y="243.87" text-anchor="start" font-family='"Excalifont","Virgil","Segoe Print","Comic Sans MS",ui-rounded,cursive' font-size="11" fill="var(--ce-ink)">the turn</text><text xml:space="preserve" x="762" y="230.12" text-anchor="start" font-family='"Excalifont","Virgil","Segoe Print","Comic Sans MS",ui-rounded,cursive' font-size="11" fill="var(--ce-ink)">the query, filtered</text><text xml:space="preserve" x="762" y="243.87" text-anchor="start" font-family='"Excalifont","Virgil","Segoe Print","Comic Sans MS",ui-rounded,cursive' font-size="11" fill="var(--ce-ink)">by label class</text><path d="M40.24 279.99C381.11 279.76 722.16 280.17 920.23 279.79M39.89 279.93C247.61 280.7 455.04 280.84 920.12 279.99" fill="none" stroke="var(--ce-border)" stroke-width="1" stroke-linecap="round" stroke-linejoin="round"/><text xml:space="preserve" x="180" y="306.12" text-anchor="end" font-family='"Excalifont","Virgil","Segoe Print","Comic Sans MS",ui-rounded,cursive' font-size="11" fill="var(--ce-ink-subtle)">Re-rank on</text><text xml:space="preserve" x="204" y="306.12" text-anchor="start" font-family='"Excalifont","Virgil","Segoe Print","Comic Sans MS",ui-rounded,cursive' font-size="11" fill="var(--ce-ink)">relevance</text><text xml:space="preserve" x="390" y="306.12" text-anchor="start" font-family='"Excalifont","Virgil","Segoe Print","Comic Sans MS",ui-rounded,cursive' font-size="11" fill="var(--ce-ink)">relevance</text><text xml:space="preserve" x="576" y="306.12" text-anchor="start" font-family='"Excalifont","Virgil","Segoe Print","Comic Sans MS",ui-rounded,cursive' font-size="11" fill="var(--ce-ink)">relevance, recency</text><text xml:space="preserve" x="576" y="319.87" text-anchor="start" font-family='"Excalifont","Virgil","Segoe Print","Comic Sans MS",ui-rounded,cursive' font-size="11" fill="var(--ce-ink)">and confidence</text><text xml:space="preserve" x="762" y="306.12" text-anchor="start" font-family='"Excalifont","Virgil","Segoe Print","Comic Sans MS",ui-rounded,cursive' font-size="11" fill="var(--ce-ink)">relevance and</text><text xml:space="preserve" x="762" y="319.87" text-anchor="start" font-family='"Excalifont","Virgil","Segoe Print","Comic Sans MS",ui-rounded,cursive' font-size="11" fill="var(--ce-ink)">diversity (MMR)</text><path d="M39.76 356.24C216.98 357.25 394.37 356.94 919.89 355.96M40.05 355.95C347.52 356.09 655.17 356.05 919.89 355.9" fill="none" stroke="var(--ce-border)" stroke-width="1" stroke-linecap="round" stroke-linejoin="round"/><text xml:space="preserve" x="180" y="382.12" text-anchor="end" font-family='"Excalifont","Virgil","Segoe Print","Comic Sans MS",ui-rounded,cursive' font-size="11" fill="var(--ce-ink-subtle)">Packed as</text><text xml:space="preserve" x="204" y="382.12" text-anchor="start" font-family='"Excalifont","Virgil","Segoe Print","Comic Sans MS",ui-rounded,cursive' font-size="11" fill="var(--ce-ink)">top 3–5,</text><text xml:space="preserve" x="204" y="395.87" text-anchor="start" font-family='"Excalifont","Virgil","Segoe Print","Comic Sans MS",ui-rounded,cursive' font-size="11" fill="var(--ce-ink)">bookended</text><text xml:space="preserve" x="390" y="382.12" text-anchor="start" font-family='"Excalifont","Virgil","Segoe Print","Comic Sans MS",ui-rounded,cursive' font-size="11" fill="var(--ce-ink)">the handful</text><text xml:space="preserve" x="390" y="395.87" text-anchor="start" font-family='"Excalifont","Virgil","Segoe Print","Comic Sans MS",ui-rounded,cursive' font-size="11" fill="var(--ce-ink)">that fit</text><text xml:space="preserve" x="576" y="382.12" text-anchor="start" font-family='"Excalifont","Virgil","Segoe Print","Comic Sans MS",ui-rounded,cursive' font-size="11" fill="var(--ce-ink)">its 5–10%</text><text xml:space="preserve" x="576" y="395.87" text-anchor="start" font-family='"Excalifont","Virgil","Segoe Print","Comic Sans MS",ui-rounded,cursive' font-size="11" fill="var(--ce-ink)">share</text><text xml:space="preserve" x="762" y="382.12" text-anchor="start" font-family='"Excalifont","Virgil","Segoe Print","Comic Sans MS",ui-rounded,cursive' font-size="11" fill="var(--ce-ink)">two or three,</text><text xml:space="preserve" x="762" y="395.87" text-anchor="start" font-family='"Excalifont","Virgil","Segoe Print","Comic Sans MS",ui-rounded,cursive' font-size="11" fill="var(--ce-ink)">distinct</text><text xml:space="preserve" x="40" y="448.12" text-anchor="start" font-family='"Excalifont","Virgil","Segoe Print","Comic Sans MS",ui-rounded,cursive' font-size="11" fill="var(--ce-ink-subtle)">Documents: Post 11 · Tools: Post 15 · Memory: Post 16 · Advanced retrieval: Post 17</text><text xml:space="preserve" x="40" y="469.04" text-anchor="start" font-family='"Excalifont","Virgil","Segoe Print","Comic Sans MS",ui-rounded,cursive' font-size="12" fill="var(--ce-ink-muted)">A large MCP deployment can expose hundreds of tools. Running them through this pipeline is what keeps the toolbox small.</text>
</svg>
