<?xml version="1.0" encoding="UTF-8"?>
<svg xmlns="http://www.w3.org/2000/svg" viewBox="0 0 820 460" role="img" aria-labelledby="t d">
  <title id="t">A stable prefix turns into a cache hit</title>
  <desc id="d">Two hand-drawn token bars of identical width, one above the other. The first, labelled call one and cold, splits into a 4,600-token stable segment of system prompt and tools and a 5,900-token volatile segment of user turn and history; the whole 10,500 tokens bill at full rate. An arrow leads down to a dashed box marked KV-cache stored, with about a five minute idle lifetime, holding the keys and values already computed for the prefix. A second arrow leads to the warm call, whose prefix segment occupies exactly the same width but is now a cache hit billed at roughly a tenth of the input rate, while the volatile segment still pays full rate. A caption states that a cache breakpoint is a prefix match from the first byte, and that any change invalidates the cache from that point to the end.</desc>

  <style><![CDATA[
    :root{--ce-bg:#FAFAF7;--ce-surface:#FFFFFF;--ce-ink:#1A1A1A;--ce-ink-muted:#5C5C5C;--ce-ink-subtle:#9A9A9A;--ce-border:#D9D9D4;--ce-primary:#5B7FBF;--ce-accent:#D98E5F;--ce-success:#5C9E78;--ce-warn:#B8895A;--ce-alert:#C66B5E;--ce-neutral-1:#EAEAE4;--ce-neutral-2:#CFCFC8;--ce-neutral-3:#8E8E88;--ce-on-fill:#FFFDF9;--ce-on-accent:#1A1A1A;}
    @media (prefers-color-scheme:dark){:root{--ce-bg:#0E0F12;--ce-surface:#16181C;--ce-ink:#F2F2EE;--ce-ink-muted:#B4B4AE;--ce-ink-subtle:#6E6E68;--ce-border:#2A2D33;--ce-primary:#8BA8E0;--ce-accent:#E8B088;--ce-success:#7FBF9B;--ce-warn:#D4B58A;--ce-alert:#D88880;--ce-neutral-1:#1F2229;--ce-neutral-2:#2C3038;--ce-neutral-3:#6E6E68;--ce-on-fill:#14161A;--ce-on-accent:#1A1A1A;}}
    .bg{fill:var(--ce-bg);}
    text{dominant-baseline:auto;}
  ]]></style>

  <rect class="bg" width="820" height="460"/>
<text xml:space="preserve" x="32" y="38.24" text-anchor="start" font-family='"Excalifont","Virgil","Segoe Print","Comic Sans MS",ui-rounded,cursive' font-size="22" fill="var(--ce-ink)">Prompt caching: same prefix, new suffix</text><text xml:space="preserve" x="32" y="61.96" text-anchor="start" font-family='"Excalifont","Virgil","Segoe Print","Comic Sans MS",ui-rounded,cursive' font-size="13" fill="var(--ce-ink-muted)">A prefix that does not change byte-for-byte is stored once and replayed at about a tenth of the input rate.</text><text xml:space="preserve" x="110" y="107.96" text-anchor="start" font-family='"Excalifont","Virgil","Segoe Print","Comic Sans MS",ui-rounded,cursive' font-size="13" fill="var(--ce-ink)">Call 1 · cold</text><text xml:space="preserve" x="730" y="108.12" text-anchor="end" font-family='"Excalifont","Virgil","Segoe Print","Comic Sans MS",ui-rounded,cursive' font-size="11" fill="var(--ce-ink-subtle)">10 500 tok at full rate</text><g opacity="0.3"><path d="M118.97 117.07C196.85 117.67 276.99 120.21 374.97 116.61C380.76 118.89 380.64 122.01 384.28 123.42C380.04 138.47 380.65 148.87 380.1 158.65C382.9 164.02 380.76 168.4 372.08 163.42C320.25 165.31 263.58 165.69 117.77 164.91C111.84 167.27 109.08 162.58 108.24 156.39C108.83 144.13 110.29 132.06 112.49 128.46C111.67 119.15 111.77 117.75 116.03 119.78C118 118 118 118 118 118" fill="var(--ce-alert)" stroke="none"/><path d="M118.49 118.73C215.59 115.24 315.27 116.06 374.02 117.08M117.53 117.5C214.95 119.24 311.86 119.35 373.76 118.45M374 118C379.03 116.51 383.75 118.7 382.12 126.81M372.33 116.94C379.95 118.59 379.82 120.91 382.12 127.48M381.06 125.12C383.32 134.66 380.48 145.13 383.12 159.95M382 125.26C381.7 132.65 381.38 141.05 381.91 158.47M382 158C383.56 162.78 380.31 165.25 373.2 164.4M383.33 159.34C382.58 162.27 381.41 166.95 372.26 164.16M374.11 165.32C305.01 166.24 236.69 164.74 119.39 166.11M373.89 165.26C313.27 167.65 253.08 166.88 117.54 166.07M118 166C113.44 165.3 109.57 161.75 110.96 157.15M119.8 165.25C114.37 166.95 111.66 164.77 111.51 156.09M110.09 159.48C112.26 147.35 110.67 139.39 109.12 125.16M110.69 157.22C109.62 151.37 110.54 144.46 109.81 126.83M110 126C111.1 119.39 114.53 116.85 116.1 117.53M108.18 127.15C108.33 120.75 111.12 118.55 116.37 119.46M118 118C118 118 118 118 118 118M118 118C118 118 118 118 118 118" fill="none" stroke="var(--ce-ink)" stroke-width="1.2" stroke-linecap="round" stroke-linejoin="round"/></g><text xml:space="preserve" x="122" y="136.12" text-anchor="start" font-family='"Excalifont","Virgil","Segoe Print","Comic Sans MS",ui-rounded,cursive' font-size="11" fill="var(--ce-ink)">system prompt + tools</text><text xml:space="preserve" x="122" y="154.12" text-anchor="start" font-family='"Excalifont","Virgil","Segoe Print","Comic Sans MS",ui-rounded,cursive' font-size="11" fill="var(--ce-ink-muted)">stable · 4 600 tok</text><g opacity="0.55"><path d="M388.27 116.56C492.98 118.03 597.64 119.71 722.94 116.74C726.41 116.53 728.49 119.23 731.75 123.72C729.47 139.69 727.53 151.72 730.15 157.48C730.96 162.96 724.82 168.35 724.27 164.29C623.47 167.67 521.67 167.06 390.18 164.3C384.91 167.07 379.67 161.84 383.38 159.07C380.11 148.05 382.83 140.76 379.7 125.25C379.61 120.47 386.82 119.26 387.54 119.65C390 118 390 118 390 118" fill="var(--ce-neutral-2)" stroke="none"/><path d="M390.42 119.3C486.86 116.05 582.72 116.07 722.41 119.07M390.05 118.31C469.11 116.21 547.68 116.5 722.51 118.14M722 118C727.12 117.99 728.46 119.38 730.17 126.56M721.57 118.43C728.8 115.78 731.4 122.76 732.11 124.31M731.43 127.12C731.28 133.58 731.22 140.9 728.43 157.6M730.11 125.7C729.43 136.25 729 145.11 730.7 158.67M730 158C730.34 163.86 727.79 167.98 721.23 165.12M730.58 157.53C729.47 165.27 728.45 164.69 723.22 164.8M723.04 166.2C628.26 166.96 536.11 168.69 390.88 165.14M721.69 166.48C597.31 167 473.86 168.12 389.98 166.36M390 166C386.39 164.42 382.24 163.34 381.4 158.35M391.6 167.56C386.95 166.92 380.7 163.12 381.72 159.4M380.63 156.98C381.63 151.69 381.24 145.66 381.4 124.02M382.37 158.84C381.17 150.62 381.32 142.06 382.35 125.36M382 126C382.48 120.52 385.53 118.49 388.75 118.98M382.16 125.71C381.02 120.23 384.6 116.15 392.25 118.02M390 118C390 118 390 118 390 118M390 118C390 118 390 118 390 118" fill="none" stroke="var(--ce-ink)" stroke-width="1.2" stroke-linecap="round" stroke-linejoin="round"/></g><text xml:space="preserve" x="394" y="136.12" text-anchor="start" font-family='"Excalifont","Virgil","Segoe Print","Comic Sans MS",ui-rounded,cursive' font-size="11" fill="var(--ce-ink)">user turn + history</text><text xml:space="preserve" x="394" y="154.12" text-anchor="start" font-family='"Excalifont","Virgil","Segoe Print","Comic Sans MS",ui-rounded,cursive' font-size="11" fill="var(--ce-ink-muted)">changes every call · 5 900 tok</text><path d="M246.63 164.92C244.64 175.78 245.9 182.74 247.17 186.29M246.73 165.52C245.72 172.12 245.94 178.71 245.8 185.85" fill="none" stroke="var(--ce-ink)" stroke-width="1.2" stroke-linecap="round" stroke-linejoin="round"/><path d="M250.49 175.96 L246 186 L241.51 175.96" fill="none" stroke="var(--ce-ink)" stroke-width="1.2" stroke-linecap="round" stroke-linejoin="round"/><path d="M120.25 184.65C219.52 187.24 314.23 185.69 372.59 185.77C376.56 186.57 380.29 190.89 383.05 195.19C383.47 205 381.59 218.78 379.69 234.05C379.58 240.56 376.33 244.28 373.58 243.18C321.24 240.49 266.03 243.9 117.34 240.13C113.05 242.8 107.53 239.87 110.37 233.84C109.02 220.87 108.21 205.95 111.73 197.24C107.4 187.2 112.4 185.82 121.42 185.75C119.33 186 119.33 186 119.33 186" fill="var(--ce-neutral-1)" stroke="none"/><path d="M118.76 187.56C178.58 185.89 235.47 188.09 371.61 186.97M120.1 185.9C216.07 187.21 310.85 186.78 373.33 186.33M372.67 186C377.47 186.64 381.41 188.73 382.23 196.9M373.89 184.43C378.41 186.17 382.03 187.55 382.17 197.08M381.26 196.44C381.68 209.15 382.65 222.61 383.52 231.81M382.92 196.28C382.49 207.97 382.59 219.69 381.09 232.95M382 232.67C383.39 240.87 378.65 243.62 371.93 243.41M382.93 231.12C383.06 238.69 380.26 240.75 373.25 241.65M372.18 242.39C314.6 239.57 253.54 242.06 119.92 242.7M373.02 241.64C281.6 244.22 191.11 243.51 119.36 241.81M119.33 242C114.77 241.9 109.81 238.33 111.33 231.95M120.66 241.3C114.63 241.35 110.89 238.01 110.4 230.81M108.03 233.66C111.34 217.74 109.88 205.2 108.44 195.83M110.61 232.33C109.87 218.04 109.66 203.07 110.4 196.08M110 195.33C111 189.14 111.31 184.68 120.28 184.9M110.14 195.79C108.41 189.5 115.02 187.08 117.56 187.17M119.33 186C119.33 186 119.33 186 119.33 186M119.33 186C119.33 186 119.33 186 119.33 186" fill="none" stroke="var(--ce-ink)" stroke-width="1.2" stroke-linecap="round" stroke-linejoin="round" stroke-dasharray="9 7"/><text xml:space="preserve" x="122" y="205.96" text-anchor="start" font-family='"Excalifont","Virgil","Segoe Print","Comic Sans MS",ui-rounded,cursive' font-size="13" fill="var(--ce-ink)">KV-cache stored</text><text xml:space="preserve" x="122" y="224.12" text-anchor="start" font-family='"Excalifont","Virgil","Segoe Print","Comic Sans MS",ui-rounded,cursive' font-size="11" fill="var(--ce-ink-muted)">about 5 min idle TTL</text><text xml:space="preserve" x="406" y="200.12" text-anchor="start" font-family='"Excalifont","Virgil","Segoe Print","Comic Sans MS",ui-rounded,cursive' font-size="11" fill="var(--ce-ink-muted)">The provider keeps the keys and values it already</text><text xml:space="preserve" x="406" y="218.12" text-anchor="start" font-family='"Excalifont","Virgil","Segoe Print","Comic Sans MS",ui-rounded,cursive' font-size="11" fill="var(--ce-ink-muted)">computed for the prefix, keyed by the exact byte</text><text xml:space="preserve" x="406" y="236.12" text-anchor="start" font-family='"Excalifont","Virgil","Segoe Print","Comic Sans MS",ui-rounded,cursive' font-size="11" fill="var(--ce-ink-muted)">sequence of those tokens.</text><path d="M245.31 241.94C246.03 250.31 246.86 253.41 245.84 266.62M246.25 242.01C247.02 248.67 246.05 256.35 246.91 267.7" fill="none" stroke="var(--ce-ink)" stroke-width="1.2" stroke-linecap="round" stroke-linejoin="round"/><path d="M250.49 257.96 L246 268 L241.51 257.96" fill="none" stroke="var(--ce-ink)" stroke-width="1.2" stroke-linecap="round" stroke-linejoin="round"/><text xml:space="preserve" x="110" y="279.96" text-anchor="start" font-family='"Excalifont","Virgil","Segoe Print","Comic Sans MS",ui-rounded,cursive' font-size="13" fill="var(--ce-ink)">Call 2 · warm, within 5 min</text><text xml:space="preserve" x="730" y="280.12" text-anchor="end" font-family='"Excalifont","Virgil","Segoe Print","Comic Sans MS",ui-rounded,cursive' font-size="11" fill="var(--ce-ink-subtle)">4 600 at 10% + 5 900 at full</text><g opacity="0.34"><path d="M118.24 290.54C171.83 289.32 222.32 290.31 374.37 289.46C380.34 288.67 379.85 291.29 381.46 298.76C382.9 309.61 383.76 321.4 380.65 327.87C379.76 333.82 380.56 340.13 371.87 336.58C307.83 340.24 243.4 340.33 117.36 337.55C110.62 338.19 108.52 334.07 109.4 328.81C112.05 325.58 109.8 315.39 107.78 295.47C110.83 294.71 110.72 289.16 118.62 289.39C118 290 118 290 118 290" fill="var(--ce-success)" stroke="none"/><path d="M117.45 290.77C209.35 290.62 298.17 290.41 374.33 291.08M118.73 289.26C207.62 290.15 296.75 290.43 373.97 289.47M374 290C378.2 291.08 383.54 294.33 382.37 298.82M374.96 288.93C381.39 290.95 383.56 292.08 383.55 299.44M380.39 297.1C380.83 305.17 382.13 313.77 383.46 330.12M381.25 298.25C381.63 309.33 381.41 320.29 381.46 330.9M382 330C383.74 336.57 377.53 339.8 373.36 337.56M380.7 331.03C379.74 334.93 377.83 339.17 374.28 339.57M373.68 337.91C305.24 339.07 233.86 339.28 117.54 338.52M373.56 338.36C279.25 340.73 183.02 339.88 117.74 337.25M118 338C113.19 339.24 111.83 335.53 110.66 328.89M118.71 336.21C111.32 337.26 111.21 334.1 109.63 328.86M111.66 331.51C108.84 323.58 110.97 312.31 109.28 299.08M109.66 330.51C109.27 319.6 110.75 308.21 110 298.35M110 298C109.14 292.1 111.88 289.61 116.88 289.23M108.1 298.14C110.49 291.48 114.42 288.47 118.67 291.46M118 290C118 290 118 290 118 290M118 290C118 290 118 290 118 290" fill="none" stroke="var(--ce-ink)" stroke-width="1.2" stroke-linecap="round" stroke-linejoin="round"/></g><text xml:space="preserve" x="122" y="308.12" text-anchor="start" font-family='"Excalifont","Virgil","Segoe Print","Comic Sans MS",ui-rounded,cursive' font-size="11" fill="var(--ce-ink)">same prefix, cache hit</text><text xml:space="preserve" x="122" y="326.12" text-anchor="start" font-family='"Excalifont","Virgil","Segoe Print","Comic Sans MS",ui-rounded,cursive' font-size="11" fill="var(--ce-ink-muted)">about 10% of input rate · 4 600 tok</text><g opacity="0.55"><path d="M391.19 289.81C459.37 289.23 526.51 289.6 722.44 289.46C725.98 291.5 727.7 293.71 728.94 299.06C732.32 310.83 730.64 319.04 730.7 331.9C727.82 332.76 729.82 340.08 724.06 337.45C608.11 338.85 494.88 337.99 389.84 336.83C383.69 337.98 384.31 333.33 384.54 331.48C383.67 323.1 382.67 311.29 380.2 297.46C383.97 290.83 385.77 290.68 390.13 289.26C390 290 390 290 390 290" fill="var(--ce-neutral-2)" stroke="none"/><path d="M389.54 291.33C475.35 291.25 561.24 290.41 722.67 290.04M389.7 290.1C458.09 287.23 528.01 287.66 721.33 290.67M722 290C726.29 288.57 728.25 291.01 730.41 298.57M720.2 290.42C725.64 288.14 730.54 293.93 728.95 296.27M730.76 299.09C728.79 306.49 728.87 318.33 728.77 331.78M729.36 298.69C729.36 304.53 729.03 311.55 730.25 329.1M730 330C730.53 333.65 729.01 338.52 721.39 338.27M731.95 329.22C731.23 333.33 729.47 336.91 720.64 340.21M722.68 338.7C628.27 338.05 533.33 338.5 389.32 337.49M721.41 338.05C619.17 340.08 515.88 339.78 390.15 337.66M390 338C386.14 338.35 380.51 337.11 381.1 330.09M390.51 338.52C383.9 337.23 380.25 337.05 379.84 332.16M382.2 329.01C382.92 317.52 382.24 305.78 381.56 297.94M381.34 330.13C382.82 316.84 381.54 305.81 382.54 298.88M382 298C380.53 293.23 382.88 291.25 389.53 290.67M382.08 296.7C383.18 290.95 383.3 290.67 389.96 290.03M390 290C390 290 390 290 390 290M390 290C390 290 390 290 390 290" fill="none" stroke="var(--ce-ink)" stroke-width="1.2" stroke-linecap="round" stroke-linejoin="round"/></g><text xml:space="preserve" x="394" y="308.12" text-anchor="start" font-family='"Excalifont","Virgil","Segoe Print","Comic Sans MS",ui-rounded,cursive' font-size="11" fill="var(--ce-ink)">new user turn</text><text xml:space="preserve" x="394" y="326.12" text-anchor="start" font-family='"Excalifont","Virgil","Segoe Print","Comic Sans MS",ui-rounded,cursive' font-size="11" fill="var(--ce-ink-muted)">full rate as before · 5 900 tok</text><g opacity="0.3"><path d="M110.81 359.15C114.45 360.34 118.64 360.24 126.4 359.37C128.77 359.14 125.56 358.98 126.41 363.53C127.36 364.28 127.77 366.83 126.94 371.15C125.88 373.84 125.83 375.03 126.88 373.32C121.93 371.18 121.42 372.94 112.39 374.59C110.82 372.78 110.91 374.73 110.48 369.79C110.4 368.67 110.51 364.74 109.4 362.8C107.92 360.21 109.68 362.19 111.81 359.14C112.17 360 112.17 360 112.17 360" fill="var(--ce-alert)" stroke="none"/><path d="M111.71 359.3C117.66 360.33 120.9 358.8 126.89 359.16M112.31 359.47C115.86 359.44 119.51 360.07 125.87 360.43M125.83 360C126.33 360.05 126.96 359.74 128.46 362.49M125.27 361.92C126.42 359.94 127.52 359.25 128.94 361.86M127.63 361.77C127.18 364.31 128.42 365.29 128.04 370.59M127.77 361.79C127.65 364.27 128.33 366.95 127.58 370.53M128 370.83C127.31 371.68 128.43 372.25 125.25 373.99M129.21 372.25C128.13 373.28 128.46 374.25 127.44 371.25M124.74 371.75C122.1 372.35 118.18 373.08 111.19 374.26M126.38 372.8C122.62 373.05 118.36 373.16 112.69 372.96M112.17 373C109.15 372.46 109.18 371.63 111.54 372.13M112.47 371.82C110.53 372.21 109.89 372.35 110.65 371.7M109.46 371.06C109.52 368.68 109.74 365.81 109.93 361.65M109.58 370.72C110.21 368.8 110.19 366.44 109.6 361.91M110 362.17C111.91 362.42 111.94 358.89 112.34 358.11M108.07 363.42C111.88 358.48 110.83 358.27 111.41 358.59M112.17 360C112.17 360 112.17 360 112.17 360M112.17 360C112.17 360 112.17 360 112.17 360" fill="none" stroke="var(--ce-ink)" stroke-width="1" stroke-linecap="round" stroke-linejoin="round"/></g><text xml:space="preserve" x="136" y="368.12" text-anchor="start" font-family='"Excalifont","Virgil","Segoe Print","Comic Sans MS",ui-rounded,cursive' font-size="11" fill="var(--ce-ink-muted)">cold prefix, full rate</text><g opacity="0.34"><path d="M323.84 361.08C327.92 359.18 332.42 361.14 334.12 361.68C335.47 357.56 335.46 360.59 336.06 362C337.74 365.2 338.17 368.79 337.53 371.56C339.39 374.87 338.41 375 336.2 372.16C333.22 371.4 328.72 371.35 321.46 372.88C323.27 372.64 318.24 370.76 322.57 369.85C319.42 368.45 319.89 367.57 320.27 361.12C320.41 359.35 318.24 361.47 321.49 360.79C322.17 360 322.17 360 322.17 360" fill="var(--ce-success)" stroke="none"/><path d="M322.63 360.67C325.72 358.92 327.9 359.67 336.24 360.39M322.6 359.95C325.5 360.45 328.92 359.39 335.9 359.82M335.83 360C337.73 358.37 337.43 360.2 338.49 360.99M336.1 358.92C335.45 361.13 336.83 362.02 340.27 361.28M337.16 361.77C337.78 364.95 337.51 366.54 337.84 370.49M338.38 362.49C338.36 365.64 337.85 368.5 338.1 370.88M338 370.83C337.83 372.4 338.08 374.07 335.27 373.14M337.38 369.71C338.92 372.21 336.29 374.28 334.82 371.67M335.38 373.18C330.12 372.08 324.9 372.99 320.99 373.62M335.32 373.09C330.77 372.93 327.02 372.86 322.03 372.7M322.17 373C321.11 373.2 320.96 371.36 320.51 371.59M322.33 374.69C322.45 373.72 320.99 374.31 320.99 372.37M320.19 371.49C320.61 368.44 320.61 365.79 320.59 361.32M320.06 370.9C319.71 369.33 320.04 367.24 320.04 361.78M320 362.17C320.17 360.5 322.61 359.99 321.44 359.07M318.06 363.8C319.27 361.2 321.82 359.73 323.99 359.17M322.17 360C322.17 360 322.17 360 322.17 360M322.17 360C322.17 360 322.17 360 322.17 360" fill="none" stroke="var(--ce-ink)" stroke-width="1" stroke-linecap="round" stroke-linejoin="round"/></g><text xml:space="preserve" x="346" y="368.12" text-anchor="start" font-family='"Excalifont","Virgil","Segoe Print","Comic Sans MS",ui-rounded,cursive' font-size="11" fill="var(--ce-ink-muted)">cache hit, about a tenth</text><g opacity="0.55"><path d="M533.32 359.46C535.1 361.58 540.74 358.49 545.39 360.44C547.36 361.18 550.56 362.2 545.71 360.47C548.22 364.38 548.66 367.28 548.13 369.72C547.7 370.69 545.78 374.97 545.52 371.01C540.96 371.61 536.02 373.31 530.52 374.73C530.52 372.51 530.77 372 529.47 369.9C530.78 368.75 529.37 366.92 528.89 361.69C527.71 358.5 532.01 360.74 531.16 362.44C532.17 360 532.17 360 532.17 360" fill="var(--ce-neutral-2)" stroke="none"/><path d="M530.81 359.31C536.51 360.54 540.37 360.85 545.59 358.9M531.53 360.44C535.14 360.1 538.33 360.08 545.92 360.57M545.83 360C549.12 360.69 547.9 360.65 548.52 363.49M546.93 359.92C549.08 357.73 546.15 360.19 547 360.7M548.42 361.77C548.2 365.59 548.15 367.79 547.64 370.39M548.12 362.33C548 364.42 548.04 367.45 547.75 371.23M548 370.83C548.35 373.13 547.74 371.88 545.29 372.28M549.55 371.17C549.72 371.14 548.71 374.3 546.8 372.1M546.02 371.88C543.6 371.81 539.81 372.9 533.53 372.98M545.63 373.37C543.03 372.8 539.78 372.55 532.73 372.44M532.17 373C529.08 373.95 528.75 371.08 529.47 371.06M532.2 373.56C529.77 375.23 532.08 371.68 531.33 373.04M529.19 370.19C529.98 369.94 529.74 367.5 529.52 362.72M529.68 371.08C529.89 367.26 529.71 364.58 529.62 362.51M530 362.17C528.42 362.59 529.28 361.08 530.54 360.04M528.05 360.17C531.27 359.31 532.8 361.2 531.98 359.74M532.17 360C532.17 360 532.17 360 532.17 360M532.17 360C532.17 360 532.17 360 532.17 360" fill="none" stroke="var(--ce-ink)" stroke-width="1" stroke-linecap="round" stroke-linejoin="round"/></g><text xml:space="preserve" x="556" y="368.12" text-anchor="start" font-family='"Excalifont","Virgil","Segoe Print","Comic Sans MS",ui-rounded,cursive' font-size="11" fill="var(--ce-ink-muted)">new tokens, full rate</text><text xml:space="preserve" x="32" y="411.04" text-anchor="start" font-family='"Excalifont","Virgil","Segoe Print","Comic Sans MS",ui-rounded,cursive' font-size="12" fill="var(--ce-ink-muted)">A cache breakpoint is a prefix match measured from the very first byte.</text><text xml:space="preserve" x="32" y="431.04" text-anchor="start" font-family='"Excalifont","Virgil","Segoe Print","Comic Sans MS",ui-rounded,cursive' font-size="12" fill="var(--ce-ink)">Any change invalidates the cache from the point of change to the end of the request.</text>
</svg>
