<?xml version="1.0" encoding="UTF-8"?>
<svg xmlns="http://www.w3.org/2000/svg" viewBox="0 0 960 540" role="img" aria-labelledby="t d">
  <title id="t">The memory taxonomy: short-term, and three kinds of long-term</title>
  <desc id="d">A hand-drawn figure in two bands. The upper band, short-term memory, lives in the window and is billed on every call: working memory holding the active window, scratchpad, and intermediate tool output, lost when the call ends; and the conversation buffer holding recent turns, managed by sliding window, rolling summary, or a compaction threshold. The lower band, long-term memory, lives outside the window and is billed only for the slice retrieved, and splits three ways. Episodic holds specific past interactions as embedded events retrieved by similarity and time range. Semantic holds distilled facts and preferences, slowly changing, pulled as background. Procedural holds how-tos and rules, reused across sessions and matched by trigger. A caption explains that one store for all three serves each badly: the preference gets buried under events, the event is treated as a standing fact, and the rule scores below an episode and never fires.</desc>

  <style><![CDATA[
    :root{--ce-bg:#FAFAF7;--ce-surface:#FFFFFF;--ce-ink:#1A1A1A;--ce-ink-muted:#5C5C5C;--ce-ink-subtle:#9A9A9A;--ce-border:#D9D9D4;--ce-primary:#5B7FBF;--ce-accent:#D98E5F;--ce-success:#5C9E78;--ce-warn:#B8895A;--ce-alert:#C66B5E;--ce-neutral-1:#EAEAE4;--ce-neutral-2:#CFCFC8;--ce-neutral-3:#8E8E88;--ce-on-fill:#FFFDF9;--ce-on-accent:#1A1A1A;}
    @media (prefers-color-scheme:dark){:root{--ce-bg:#0E0F12;--ce-surface:#16181C;--ce-ink:#F2F2EE;--ce-ink-muted:#B4B4AE;--ce-ink-subtle:#6E6E68;--ce-border:#2A2D33;--ce-primary:#8BA8E0;--ce-accent:#E8B088;--ce-success:#7FBF9B;--ce-warn:#D4B58A;--ce-alert:#D88880;--ce-neutral-1:#1F2229;--ce-neutral-2:#2C3038;--ce-neutral-3:#6E6E68;--ce-on-fill:#14161A;--ce-on-accent:#1A1A1A;}}
    .bg{fill:var(--ce-bg);}
    text{dominant-baseline:auto;}
  ]]></style>

  <rect class="bg" width="960" height="540"/>
<text xml:space="preserve" x="40" y="38.24" text-anchor="start" font-family='"Excalifont","Virgil","Segoe Print","Comic Sans MS",ui-rounded,cursive' font-size="22" fill="var(--ce-ink)">Memory taxonomy for an agent</text><text xml:space="preserve" x="40" y="61.96" text-anchor="start" font-family='"Excalifont","Virgil","Segoe Print","Comic Sans MS",ui-rounded,cursive' font-size="13" fill="var(--ce-ink-muted)">Short-term lives in the window and is billed on every call. Long-term lives outside it and is billed only for the slice retrieved.</text><text xml:space="preserve" x="40" y="98.12" text-anchor="start" font-family='"Excalifont","Virgil","Segoe Print","Comic Sans MS",ui-rounded,cursive' font-size="11" fill="var(--ce-ink-subtle)">SHORT-TERM · in the window, billed every call</text><path d="M56.53 103.96C120.05 108.43 183.8 105.62 320.83 107.41C334.7 107.68 338.68 112.32 342.45 124.12C337.91 140.28 341.11 155.01 337.42 190.24C339.15 201.79 331.76 212.41 321.09 210.6C219.94 211.2 117.4 210.56 55.59 211.97C46.33 211.34 37.81 205.46 42.4 193.63C42.5 167.57 38.35 140.53 38.88 125.13C37.82 113.29 45.6 103.51 55.53 104.35C57.33 106 57.33 106 57.33 106" fill="var(--ce-surface)" stroke="none"/><path d="M58.87 107.5C150.74 109.72 240.94 107.62 321.48 107.55M56.7 105.23C135.89 106.15 213.54 107.24 323.21 106.01M322.67 106C335.22 105.35 341.51 113.59 340.11 122.89M324.58 104.44C333.02 105.99 338.16 112.93 339.45 122.8M339.6 124.45C338.87 143.77 341.77 164.06 339.34 192.73M339.3 123.78C339.05 140.89 340.09 160.59 340.31 191.73M340 192.67C339.3 203.31 335.37 208.34 321.85 210.83M340.24 193.28C337.88 203.69 335.09 208.64 324.54 207.94M322.4 210.08C233.58 209.42 147.93 211 58.81 210.48M323.17 209.9C218.43 210.9 114.95 211.05 57.26 209.43M57.33 210C47.57 210.93 40.68 204.78 41.48 194.08M59.2 209.82C44.22 207.89 41.11 204.68 39.04 192.72M39.24 193.64C38.65 172.3 39.33 154.1 40.36 122.87M40.13 192.68C40.66 169.69 41.17 146.72 40.3 123.31M40 123.33C39.97 111.45 45.31 104.3 57.89 105.05M40.18 122.29C39.63 110.51 43.74 105.82 59.01 104.87M57.33 106C57.33 106 57.33 106 57.33 106M57.33 106C57.33 106 57.33 106 57.33 106" fill="none" stroke="var(--ce-ink)" stroke-width="1.2" stroke-linecap="round" stroke-linejoin="round"/><path d="M45.37 115.54C45.2 147.26 46.51 180.76 45.01 200.32M44.65 114.63C45.17 147.76 44.88 180.53 44.82 201.34" fill="none" stroke="var(--ce-neutral-2)" stroke-width="4" stroke-linecap="round" stroke-linejoin="round"/><text xml:space="preserve" x="60" y="127.8" text-anchor="start" font-family='"Excalifont","Virgil","Segoe Print","Comic Sans MS",ui-rounded,cursive' font-size="15" fill="var(--ce-ink)">Working memory</text><text xml:space="preserve" x="60" y="149.2" text-anchor="start" font-family='"Excalifont","Virgil","Segoe Print","Comic Sans MS",ui-rounded,cursive' font-size="10" fill="var(--ce-ink-muted)">The active context window.</text><text xml:space="preserve" x="60" y="161.7" text-anchor="start" font-family='"Excalifont","Virgil","Segoe Print","Comic Sans MS",ui-rounded,cursive' font-size="10" fill="var(--ce-ink-muted)">Lost when the call ends.</text><text xml:space="preserve" x="60" y="187.2" text-anchor="start" font-family='"Excalifont","Virgil","Segoe Print","Comic Sans MS",ui-rounded,cursive' font-size="10" fill="var(--ce-ink-subtle)">scratchpad · current plan · intermediate tool</text><text xml:space="preserve" x="60" y="199.7" text-anchor="start" font-family='"Excalifont","Virgil","Segoe Print","Comic Sans MS",ui-rounded,cursive' font-size="10" fill="var(--ce-ink-subtle)">output</text><path d="M373.07 105.44C474.08 107.18 577.01 106.21 638.44 105.88C650.24 103.74 654.44 111.15 657.57 122.89C655.99 147.08 656.67 169.31 656.84 195.22C653.52 201.76 651.6 212.33 640.59 210.31C550.04 210.05 466.89 210.35 375.06 209.09C360.65 211 354.94 205.95 358.43 191.16C355.2 174.21 353.13 151.76 357.31 123.25C357.46 113.75 363.22 104.3 375.91 105.88C373.33 106 373.33 106 373.33 106" fill="var(--ce-surface)" stroke="none"/><path d="M372.77 106.72C458.81 105.22 545.19 104.98 637.18 104.8M373.56 106.64C458.67 105.47 544.24 104.83 638.48 106.6M638.67 106C648.71 105.15 654.7 110.72 656.18 125.14M638.65 106.93C648.9 104.38 657.06 112.96 654.17 123.65M656.89 122.45C655.56 139.22 653.76 156.84 656.2 194.16M656.81 123.84C655.69 140.03 655.89 158.96 656.3 192.74M656 192.67C654.61 205.12 650.5 208.89 637.9 210.69M657.67 192.93C658.17 205.62 647.96 211 640.88 209.01M637.09 209.48C581.27 211.57 522.95 210.52 374.25 208.63M639.27 209.94C580.17 211.54 521.32 211.95 372.93 209.47M373.33 210C362.49 210.79 355.13 206.09 354.89 190.75M374.86 210.99C362.72 209.37 355.25 204.99 358.19 192.1M355.48 192.15C355.27 176.36 356.6 156.86 354.16 124.97M356.93 192.71C356.27 168.03 356.84 143.93 355.86 123.54M356 123.33C357.61 110.67 360.98 107.04 373.63 107.46M354.16 125.23C353.72 112.7 362.21 104.88 372.28 104.01M373.33 106C373.33 106 373.33 106 373.33 106M373.33 106C373.33 106 373.33 106 373.33 106" fill="none" stroke="var(--ce-ink)" stroke-width="1.2" stroke-linecap="round" stroke-linejoin="round"/><path d="M362.17 114.95C361.85 146.43 362.3 177.05 360.79 200.63M361.31 114.5C361.87 132.64 361.93 150.52 361.47 200.58" fill="none" stroke="var(--ce-neutral-2)" stroke-width="4" stroke-linecap="round" stroke-linejoin="round"/><text xml:space="preserve" x="376" y="127.8" text-anchor="start" font-family='"Excalifont","Virgil","Segoe Print","Comic Sans MS",ui-rounded,cursive' font-size="15" fill="var(--ce-ink)">Conversation buffer</text><text xml:space="preserve" x="376" y="149.2" text-anchor="start" font-family='"Excalifont","Virgil","Segoe Print","Comic Sans MS",ui-rounded,cursive' font-size="10" fill="var(--ce-ink-muted)">Recent user and assistant turns</text><text xml:space="preserve" x="376" y="161.7" text-anchor="start" font-family='"Excalifont","Virgil","Segoe Print","Comic Sans MS",ui-rounded,cursive' font-size="10" fill="var(--ce-ink-muted)">of the current session.</text><text xml:space="preserve" x="376" y="187.2" text-anchor="start" font-family='"Excalifont","Virgil","Segoe Print","Comic Sans MS",ui-rounded,cursive' font-size="10" fill="var(--ce-ink-subtle)">sliding window · rolling summary · compaction</text><text xml:space="preserve" x="376" y="199.7" text-anchor="start" font-family='"Excalifont","Virgil","Segoe Print","Comic Sans MS",ui-rounded,cursive' font-size="10" fill="var(--ce-ink-subtle)">threshold</text><text xml:space="preserve" x="696" y="150.12" text-anchor="start" font-family='"Excalifont","Virgil","Segoe Print","Comic Sans MS",ui-rounded,cursive' font-size="11" fill="var(--ce-ink-muted)">This post is about</text><text xml:space="preserve" x="696" y="168.12" text-anchor="start" font-family='"Excalifont","Virgil","Segoe Print","Comic Sans MS",ui-rounded,cursive' font-size="11" fill="var(--ce-ink-muted)">the long-term layer.</text><text xml:space="preserve" x="696" y="191.2" text-anchor="start" font-family='"Excalifont","Virgil","Segoe Print","Comic Sans MS",ui-rounded,cursive' font-size="10" fill="var(--ce-ink-subtle)">Short-term is Post 08</text><text xml:space="preserve" x="696" y="205.2" text-anchor="start" font-family='"Excalifont","Virgil","Segoe Print","Comic Sans MS",ui-rounded,cursive' font-size="10" fill="var(--ce-ink-subtle)">and Post 12.</text><text xml:space="preserve" x="40" y="242.12" text-anchor="start" font-family='"Excalifont","Virgil","Segoe Print","Comic Sans MS",ui-rounded,cursive' font-size="11" fill="var(--ce-ink-subtle)">LONG-TERM · outside the window, billed only for the slice retrieved</text><path d="M64.9 248.17C125.81 250.81 188.01 249.3 294.82 250.98C311.11 250.25 317.95 260.22 319.82 276.29C319.56 310.97 320.4 347.84 322.48 418.12C319.45 429.46 310.65 442.17 294.55 439.74C250.75 441.9 200.65 439.83 64.49 441.64C48.71 440.32 41.19 429.5 42.5 414.75C39.35 365.75 41.46 312.63 40.97 275.35C38.34 255.7 47.48 249.88 64.95 247.73C64 250 64 250 64 250" fill="var(--ce-surface)" stroke="none"/><path d="M65.68 249.11C130.67 248.04 193.58 248.38 297.15 249.6M64.39 250.31C151.84 249.56 239.02 250.25 295.94 250.21M296 250C313.47 248.76 321.06 259.21 320.34 272.32M296.13 251.93C310.43 249.76 322.25 259.24 320.22 276.02M319.47 273.1C320.27 324.55 317.05 376.59 321.92 416.35M319.85 274.63C320.56 304.91 321.08 336.22 320.26 416.09M320 416C321.22 432.51 310.54 439.98 295.34 440.41M320.53 415.57C321.55 432.67 312.67 441.14 294.3 441.14M294.87 441.52C202.61 438.21 112.4 438.21 63.76 441.34M295.16 440.02C230.62 441.05 165.86 442.07 64.54 439.53M64 440C46.55 440.5 40.05 432.47 41.7 415.42M64.85 439.34C49.34 437.75 40.12 433.4 39.29 414.19M39.96 416.5C40.74 361.53 39.4 305.15 41.76 275.84M40.54 416.1C41.3 362.92 39.96 309.44 40.98 274.66M40 274C40.89 259.34 46.54 248.51 63.78 248.27M38.11 273.76C38.5 258.7 48.76 251.61 62.09 250.89M64 250C64 250 64 250 64 250M64 250C64 250 64 250 64 250" fill="none" stroke="var(--ce-ink)" stroke-width="1.5" stroke-linecap="round" stroke-linejoin="round"/><path d="M45.39 260.17C44.72 313.58 45.83 368.06 44.33 431.26M45.41 259.44C46.54 304.75 46.1 349.99 45.57 431.48" fill="none" stroke="var(--ce-accent)" stroke-width="4" stroke-linecap="round" stroke-linejoin="round"/><text xml:space="preserve" x="60" y="272.72" text-anchor="start" font-family='"Excalifont","Virgil","Segoe Print","Comic Sans MS",ui-rounded,cursive' font-size="16" fill="var(--ce-ink)">Episodic</text><text xml:space="preserve" x="60" y="294.12" text-anchor="start" font-family='"Excalifont","Virgil","Segoe Print","Comic Sans MS",ui-rounded,cursive' font-size="11" fill="var(--ce-ink)">Specific past interactions.</text><text xml:space="preserve" x="60" y="317.2" text-anchor="start" font-family='"Excalifont","Virgil","Segoe Print","Comic Sans MS",ui-rounded,cursive' font-size="10" fill="var(--ce-ink-subtle)">&quot;On 14 March the user reported</text><text xml:space="preserve" x="60" y="329.7" text-anchor="start" font-family='"Excalifont","Virgil","Segoe Print","Comic Sans MS",ui-rounded,cursive' font-size="10" fill="var(--ce-ink-subtle)">a billing error and escalated it.&quot;</text><text xml:space="preserve" x="60" y="359.2" text-anchor="start" font-family='"Excalifont","Virgil","Segoe Print","Comic Sans MS",ui-rounded,cursive' font-size="10" fill="var(--ce-ink-muted)">Embedded events, retrieved by</text><text xml:space="preserve" x="60" y="371.7" text-anchor="start" font-family='"Excalifont","Virgil","Segoe Print","Comic Sans MS",ui-rounded,cursive' font-size="10" fill="var(--ce-ink-muted)">similarity and by time range.</text><text xml:space="preserve" x="60" y="421.2" text-anchor="start" font-family='"Excalifont","Virgil","Segoe Print","Comic Sans MS",ui-rounded,cursive' font-size="10" fill="var(--ce-ink-subtle)">Mem0 · Letta · Zep</text><path d="M376.84 252.15C454.02 248.05 534.17 251.06 610.12 252.19C624.54 249.93 629.61 255.45 630.58 273.53C629.94 328.18 633.49 388.43 634.07 413.66C633.33 430.45 623.86 442.05 609.38 438.29C517.94 438.96 422.15 440.06 374.65 440.83C361.48 439.85 351.64 431.23 351.43 417.54C351.34 366.69 351.18 319.98 352.21 274.79C351.27 260.51 359.67 249.95 375.81 250.91C376 250 376 250 376 250" fill="var(--ce-surface)" stroke="none"/><path d="M376.56 249.97C451.61 250.58 528.98 252.35 608.02 251.58M375.99 250.73C463 249.59 550.74 249.72 607.19 250.07M608 250C624.36 250.89 630.72 256.8 632.44 273.07M607.03 251.42C625.93 249.34 631.86 257.44 632.28 276.29M631.68 275.09C631.62 325.75 632.22 380.82 630.31 417.55M632.77 274.31C631.61 319.91 630.55 363.56 631.44 415.91M632 416C633.05 431.04 625.33 438.34 607.41 439.42M632.13 416.69C634.03 433.53 623.97 438.94 608.62 438.03M609.64 439.26C524.08 438.83 442.89 439.62 374.91 438.57M607.64 440.42C560.67 441.62 513.97 442.72 375.36 439.26M376 440C359.44 441.09 352.29 433.5 350.06 415.56M376.37 439.39C361.15 440.75 351.35 431.09 350.18 414.23M353.9 416.02C351.5 383.22 350.28 352.24 353.09 273.18M352.46 416.54C350.34 365.63 351.87 314.8 351.56 274.57M352 274C352.78 256.65 358.88 248.34 374.63 251.63M352.07 273.07C350.58 259 359.62 252.13 373.94 250.6M376 250C376 250 376 250 376 250M376 250C376 250 376 250 376 250" fill="none" stroke="var(--ce-ink)" stroke-width="1.5" stroke-linecap="round" stroke-linejoin="round"/><path d="M356.6 258.38C356.47 322.09 354.93 383.65 357.93 430.26M357.12 258.53C356.29 303.93 356.34 349.88 357.04 431.38" fill="none" stroke="var(--ce-primary)" stroke-width="4" stroke-linecap="round" stroke-linejoin="round"/><text xml:space="preserve" x="372" y="272.72" text-anchor="start" font-family='"Excalifont","Virgil","Segoe Print","Comic Sans MS",ui-rounded,cursive' font-size="16" fill="var(--ce-ink)">Semantic</text><text xml:space="preserve" x="372" y="294.12" text-anchor="start" font-family='"Excalifont","Virgil","Segoe Print","Comic Sans MS",ui-rounded,cursive' font-size="11" fill="var(--ce-ink)">Distilled facts and preferences.</text><text xml:space="preserve" x="372" y="317.2" text-anchor="start" font-family='"Excalifont","Virgil","Segoe Print","Comic Sans MS",ui-rounded,cursive' font-size="10" fill="var(--ce-ink-subtle)">&quot;The user prefers formal English;</text><text xml:space="preserve" x="372" y="329.7" text-anchor="start" font-family='"Excalifont","Virgil","Segoe Print","Comic Sans MS",ui-rounded,cursive' font-size="10" fill="var(--ce-ink-subtle)">the stack is Postgres and AWS.&quot;</text><text xml:space="preserve" x="372" y="359.2" text-anchor="start" font-family='"Excalifont","Virgil","Segoe Print","Comic Sans MS",ui-rounded,cursive' font-size="10" fill="var(--ce-ink-muted)">Slowly changing. Markdown or a</text><text xml:space="preserve" x="372" y="371.7" text-anchor="start" font-family='"Excalifont","Virgil","Segoe Print","Comic Sans MS",ui-rounded,cursive' font-size="10" fill="var(--ce-ink-muted)">graph. Pulled as background.</text><text xml:space="preserve" x="372" y="421.2" text-anchor="start" font-family='"Excalifont","Virgil","Segoe Print","Comic Sans MS",ui-rounded,cursive' font-size="10" fill="var(--ce-ink-subtle)">CLAUDE.md · Graphiti</text><path d="M688.78 251.73C740.24 249.7 791.92 248.42 921.02 249.01C937.98 249.6 946.46 255.89 946.55 275.97C945.52 322.18 946.58 367.01 945.66 414.39C942.01 431.44 937.08 441.94 919.01 442.05C831.54 438.06 740.86 437.93 689.21 440.02C674.24 439.37 662.1 432.96 665.56 415.12C663.33 372.83 666.1 327.33 663.45 274.23C664.2 260.12 671.86 250.02 686.67 248.89C688 250 688 250 688 250" fill="var(--ce-surface)" stroke="none"/><path d="M687.45 250.84C775.95 248.8 864.37 248.62 918.89 250.17M687.58 249.46C775.86 247.93 862.46 249.19 920.13 249.94M920 250C935.24 249.01 944.38 258.38 944.55 273.82M921.93 250.92C936.84 248.92 946.07 260.24 944.33 271.95M943.88 273.08C946.97 330.95 943.38 385.05 942.71 414.75M943.69 274C943.78 304.52 945.14 334.09 944.62 415.72M944 416C944.88 433.57 936.11 440.7 919.48 438.43M943.73 417.8C941.91 429.8 935.26 441.33 918.34 439.53M921.02 440.38C845.55 440.38 769.98 441.96 689.45 439.18M920.13 440.82C844.31 437.88 769.29 437.35 687.88 440.68M688 440C672.33 441.69 664.53 430.52 662.43 415.69M687.89 439.43C672.97 439.15 662.58 433.37 665.67 414.28M663.84 415.53C662.26 376.51 665.17 338.52 664.41 274.52M664.38 416.98C664.5 368.34 664.9 322.16 664.14 274.49M664 274C664.68 257.96 671.23 248.18 689.47 251M662.04 272.38C662.67 259.3 670.47 248.06 685.8 250.32M688 250C688 250 688 250 688 250M688 250C688 250 688 250 688 250" fill="none" stroke="var(--ce-ink)" stroke-width="1.5" stroke-linecap="round" stroke-linejoin="round"/><path d="M667.81 259C670.49 296.19 668.7 332.83 669.13 431.66M668.84 258.83C668.31 304.31 668.84 349.76 668.5 431.29" fill="none" stroke="var(--ce-success)" stroke-width="4" stroke-linecap="round" stroke-linejoin="round"/><text xml:space="preserve" x="684" y="272.72" text-anchor="start" font-family='"Excalifont","Virgil","Segoe Print","Comic Sans MS",ui-rounded,cursive' font-size="16" fill="var(--ce-ink)">Procedural</text><text xml:space="preserve" x="684" y="294.12" text-anchor="start" font-family='"Excalifont","Virgil","Segoe Print","Comic Sans MS",ui-rounded,cursive' font-size="11" fill="var(--ce-ink)">How to do things.</text><text xml:space="preserve" x="684" y="317.2" text-anchor="start" font-family='"Excalifont","Virgil","Segoe Print","Comic Sans MS",ui-rounded,cursive' font-size="10" fill="var(--ce-ink-subtle)">&quot;Refunds over $1 000 require</text><text xml:space="preserve" x="684" y="329.7" text-anchor="start" font-family='"Excalifont","Virgil","Segoe Print","Comic Sans MS",ui-rounded,cursive' font-size="10" fill="var(--ce-ink-subtle)">manager approval.&quot;</text><text xml:space="preserve" x="684" y="359.2" text-anchor="start" font-family='"Excalifont","Virgil","Segoe Print","Comic Sans MS",ui-rounded,cursive' font-size="10" fill="var(--ce-ink-muted)">Skills and routines reused across</text><text xml:space="preserve" x="684" y="371.7" text-anchor="start" font-family='"Excalifont","Virgil","Segoe Print","Comic Sans MS",ui-rounded,cursive' font-size="10" fill="var(--ce-ink-muted)">sessions. Matched by trigger.</text><text xml:space="preserve" x="684" y="421.2" text-anchor="start" font-family='"Excalifont","Virgil","Segoe Print","Comic Sans MS",ui-rounded,cursive' font-size="10" fill="var(--ce-ink-subtle)">.skills/ · /commands</text><text xml:space="preserve" x="40" y="477.04" text-anchor="start" font-family='"Excalifont","Virgil","Segoe Print","Comic Sans MS",ui-rounded,cursive' font-size="12" fill="var(--ce-ink-muted)">One store for all three serves each of them badly: the preference gets buried under events, the event is treated as a standing</text><text xml:space="preserve" x="40" y="499.04" text-anchor="start" font-family='"Excalifont","Virgil","Segoe Print","Comic Sans MS",ui-rounded,cursive' font-size="12" fill="var(--ce-ink)">fact, and the rule scores below an episode and never fires. Three access patterns need three schemas.</text>
</svg>
