<?xml version="1.0" encoding="UTF-8"?>
<svg xmlns="http://www.w3.org/2000/svg" viewBox="0 0 960 480" role="img" aria-labelledby="t d">
  <title id="t">Ordering the prompt so the stable prefix caches</title>
  <desc id="d">A hand-drawn figure with two bars of identical width over the same 8,200-token prompt. The upper bar is a cache miss on the first call or after the prefix moved: the whole thing bills at full input rate. The lower bar is a cache hit with a byte-identical prefix, where the 6,000-token stable block of identity, rules, format, knowledge, and tools reads at about a tenth of the price while the 2,200-token volatile block of retrieval, history, and the current turn still pays full rate. A dashed line marks where the cache_control marker goes. Four facts follow: a cache read costs about ten per cent of base input on Anthropic and about fifty on OpenAI; a cache write costs 1.25 times input for the five-minute tier and twice for the one-hour tier, paid once; a prefix must reach roughly one to four thousand tokens before it is cacheable at all; and without an explicit marker the boundary is heuristic and can move. A caption notes a single prompt edit invalidates the cache for every active session.</desc>

  <style><![CDATA[
    :root{--ce-bg:#FAFAF7;--ce-surface:#FFFFFF;--ce-ink:#1A1A1A;--ce-ink-muted:#5C5C5C;--ce-ink-subtle:#9A9A9A;--ce-border:#D9D9D4;--ce-primary:#5B7FBF;--ce-accent:#D98E5F;--ce-success:#5C9E78;--ce-warn:#B8895A;--ce-alert:#C66B5E;--ce-neutral-1:#EAEAE4;--ce-neutral-2:#CFCFC8;--ce-neutral-3:#8E8E88;--ce-on-fill:#FFFDF9;--ce-on-accent:#1A1A1A;}
    @media (prefers-color-scheme:dark){:root{--ce-bg:#0E0F12;--ce-surface:#16181C;--ce-ink:#F2F2EE;--ce-ink-muted:#B4B4AE;--ce-ink-subtle:#6E6E68;--ce-border:#2A2D33;--ce-primary:#8BA8E0;--ce-accent:#E8B088;--ce-success:#7FBF9B;--ce-warn:#D4B58A;--ce-alert:#D88880;--ce-neutral-1:#1F2229;--ce-neutral-2:#2C3038;--ce-neutral-3:#6E6E68;--ce-on-fill:#14161A;--ce-on-accent:#1A1A1A;}}
    .bg{fill:var(--ce-bg);}
    text{dominant-baseline:auto;}
  ]]></style>

  <rect class="bg" width="960" height="480"/>
<text xml:space="preserve" x="40" y="38.24" text-anchor="start" font-family='"Excalifont","Virgil","Segoe Print","Comic Sans MS",ui-rounded,cursive' font-size="22" fill="var(--ce-ink)">Order the prompt for the cache</text><text xml:space="preserve" x="40" y="61.96" text-anchor="start" font-family='"Excalifont","Virgil","Segoe Print","Comic Sans MS",ui-rounded,cursive' font-size="13" fill="var(--ce-ink-muted)">Stable content first, volatile content last. A change to the prefix invalidates the cache from that point to the end.</text><text xml:space="preserve" x="150" y="101.2" text-anchor="start" font-family='"Excalifont","Virgil","Segoe Print","Comic Sans MS",ui-rounded,cursive' font-size="10" fill="var(--ce-ink-subtle)">identity · rules · format · knowledge · tools</text><text xml:space="preserve" x="670" y="101.2" text-anchor="start" font-family='"Excalifont","Virgil","Segoe Print","Comic Sans MS",ui-rounded,cursive' font-size="10" fill="var(--ce-ink-subtle)">rag · history · turn</text><text xml:space="preserve" x="40" y="128.88" text-anchor="start" font-family='"Excalifont","Virgil","Segoe Print","Comic Sans MS",ui-rounded,cursive' font-size="14" fill="var(--ce-ink)">Cache miss</text><text xml:space="preserve" x="40" y="145.2" text-anchor="start" font-family='"Excalifont","Virgil","Segoe Print","Comic Sans MS",ui-rounded,cursive' font-size="10" fill="var(--ce-ink-muted)">first call, or</text><text xml:space="preserve" x="40" y="157.7" text-anchor="start" font-family='"Excalifont","Virgil","Segoe Print","Comic Sans MS",ui-rounded,cursive' font-size="10" fill="var(--ce-ink-muted)">the prefix moved</text><g opacity="0.3"><path d="M158.84 110.68C281.44 111.74 402.97 110 652.46 110.68C657.24 109.31 660.54 110.65 663.93 119.75C661.22 128.34 661.87 136.23 661.47 154.94C661.21 160.82 657.91 164.36 650.74 163.47C518.65 161.84 383.58 160.95 157.99 162.55C154.51 163.14 151.61 159.6 150.34 151.78C151.71 145.29 148.81 136.14 149.3 117.25C148.96 110.52 150.56 109.03 156.37 108.23C158.67 110 158.67 110 158.67 110" fill="var(--ce-alert)" stroke="none"/><path d="M159.46 109.55C283.89 109.37 409.06 109.52 652.95 110.27M158.61 110.04C332.3 111.99 505.98 111.85 653.23 109.86M653.33 110C660.2 110.83 660.22 111.38 662.15 117.98M652.49 109.94C658.76 111.79 663.74 111.3 663.45 119.57M663.97 117.78C660.88 130.56 662.56 144.23 662.66 155.05M661.41 119.55C660.84 130.75 661.78 141.83 661.1 152.61M662 153.33C660.08 159.28 659.74 163.07 652.55 163.54M661.5 152.14C663.37 156.98 659.02 162.98 653.57 160.58M653.77 162.51C482.43 164.53 312.28 163.88 159.26 161.68M653.46 161.8C491.25 163.49 328.4 163.81 158.85 161.88M158.67 162C151.63 162.05 151.35 157.25 149.92 151.95M160.33 160.12C151.91 159.86 148.15 157.92 151.85 152.1M151.79 151.81C150.76 140.29 148.63 127.01 150.64 117.07M149.81 152.97C149.99 140.92 149.73 127.64 150.84 119.18M150 118.67C149.36 113.7 151.42 109.94 159.87 110.49M148.17 120.19C150.32 111.09 152.33 112.02 159.62 112.03M158.67 110C158.67 110 158.67 110 158.67 110M158.67 110C158.67 110 158.67 110 158.67 110" fill="none" stroke="var(--ce-ink)" stroke-width="1.2" stroke-linecap="round" stroke-linejoin="round"/></g><text xml:space="preserve" x="162" y="128.12" text-anchor="start" font-family='"Excalifont","Virgil","Segoe Print","Comic Sans MS",ui-rounded,cursive' font-size="11" fill="var(--ce-ink)">stable prefix at full rate</text><text xml:space="preserve" x="162" y="147.2" text-anchor="start" font-family='"Excalifont","Virgil","Segoe Print","Comic Sans MS",ui-rounded,cursive' font-size="10" fill="var(--ce-ink-muted)">6 000 tok</text><g opacity="0.55"><path d="M672.56 110.71C713.55 112.8 754.29 113.07 839.38 111.53C848.08 112.15 848.39 113.06 851.4 120.05C850.65 129.56 848.74 133.89 851.52 153.77C849.27 159.76 847.17 164.31 842.92 164.34C780.05 159.61 721.82 161.26 669.57 162.19C662.38 162.93 662.2 158.85 660.28 154.45C662.98 142.6 661.34 131.63 661.71 119.24C662.11 111.83 665.61 110.54 673.08 108.1C670.67 110 670.67 110 670.67 110" fill="var(--ce-neutral-2)" stroke="none"/><path d="M672.62 109.92C733.13 110.67 795.4 110.03 840.98 109.38M671.18 109.16C706.9 109.02 742.54 108.97 842.12 109.3M841.33 110C848.3 108.31 848.93 112.06 850.2 117.73M841.73 111.43C847.6 108.98 850.71 113.16 848.84 116.39M850.35 119.78C848.1 129.2 848.55 139.43 851.97 152.71M849.52 117.99C850.56 125.61 849.39 132.39 849.89 152.81M850 153.33C850.87 160.37 847.22 161.8 840.58 160.26M848.76 154.33C850.27 159.98 846.06 160.72 839.93 161.22M839.8 160.38C778.74 161.02 719.47 163.82 671.68 163.8M841.32 161.13C796.42 164.18 750.77 163.58 669.67 162.15M670.67 162C664.58 161.16 660.02 158.84 660.37 153.15M672.13 162.43C664.49 159.83 661.79 160.87 662.06 155.4M662.33 153.32C660.85 144.9 663.92 133.8 662.92 119.93M661.49 152.58C661.53 144.97 662.5 136.85 661.37 117.72M662 118.67C660.74 114.83 666.42 111.58 672.51 111.94M662.15 118.75C663.02 115.16 665.81 109.61 670.9 110.6M670.67 110C670.67 110 670.67 110 670.67 110M670.67 110C670.67 110 670.67 110 670.67 110" fill="none" stroke="var(--ce-ink)" stroke-width="1.2" stroke-linecap="round" stroke-linejoin="round"/></g><text xml:space="preserve" x="672" y="128.12" text-anchor="start" font-family='"Excalifont","Virgil","Segoe Print","Comic Sans MS",ui-rounded,cursive' font-size="11" fill="var(--ce-ink)">volatile</text><text xml:space="preserve" x="672" y="147.2" text-anchor="start" font-family='"Excalifont","Virgil","Segoe Print","Comic Sans MS",ui-rounded,cursive' font-size="10" fill="var(--ce-ink-muted)">2 200 tok</text><text xml:space="preserve" x="860" y="131.04" text-anchor="start" font-family='"Excalifont","Virgil","Segoe Print","Comic Sans MS",ui-rounded,cursive' font-size="12" fill="var(--ce-ink)">8 200 tok</text><text xml:space="preserve" x="860" y="146.04" text-anchor="start" font-family='"Excalifont","Virgil","Segoe Print","Comic Sans MS",ui-rounded,cursive' font-size="12" fill="var(--ce-ink)">at full rate</text><text xml:space="preserve" x="40" y="214.88" text-anchor="start" font-family='"Excalifont","Virgil","Segoe Print","Comic Sans MS",ui-rounded,cursive' font-size="14" fill="var(--ce-ink)">Cache hit</text><text xml:space="preserve" x="40" y="231.2" text-anchor="start" font-family='"Excalifont","Virgil","Segoe Print","Comic Sans MS",ui-rounded,cursive' font-size="10" fill="var(--ce-ink-muted)">prefix is</text><text xml:space="preserve" x="40" y="243.7" text-anchor="start" font-family='"Excalifont","Virgil","Segoe Print","Comic Sans MS",ui-rounded,cursive' font-size="10" fill="var(--ce-ink-muted)">byte-identical</text><g opacity="0.34"><path d="M158.5 195.51C288.62 197.89 416.29 197.44 652.69 196.52C660.57 193.41 660.1 198.69 662.34 206.66C660.3 212.8 663.68 220.41 662.43 237.42C661.39 243.64 661.7 250.22 652.89 246.87C493.71 247.87 336.49 249.56 158.67 247.14C152.52 248.53 152.59 243.36 149.36 240.61C149.9 230.16 150.76 222.47 150.55 204.02C152.39 200.47 154.52 194.37 160.11 193.86C158.67 196 158.67 196 158.67 196" fill="var(--ce-success)" stroke="none"/><path d="M159.47 196.79C343.79 197.99 528.77 198.56 653.66 196.33M158.59 195.71C318.29 194.02 477.08 194.24 653.69 196.24M653.33 196C660.49 197.28 662.35 199.42 662.29 203.23M652.22 196.43C661.29 193.96 660.67 198.27 660.23 205.25M663.1 205.77C664.05 215.4 662.06 221.69 662.6 238.02M661.74 204.86C662.76 217.19 661.38 229.26 661.47 239.22M662 239.33C660.43 244.54 658.18 249.25 652.64 247.69M663.27 240.71C660.05 247.38 660.74 246.8 653.27 248.5M653.85 248.27C463.3 247.57 274.19 249.04 158.73 247.59M653.06 248.16C483.84 249.93 314.18 250.17 158.71 247.6M158.67 248C154.49 249.38 149.37 244 149.25 237.56M159.72 249.04C153.65 245.78 148.48 243.56 151.08 238.81M151.42 238.33C148.27 229.17 149.74 219.52 151.48 203.65M150.86 239.82C149.37 227.2 150.81 217.54 150.44 204.79M150 204.67C151.51 199.1 152.43 196.87 157.8 196.82M150.12 205.87C147.8 200.11 152.17 195.41 157.47 193.72M158.67 196C158.67 196 158.67 196 158.67 196M158.67 196C158.67 196 158.67 196 158.67 196" fill="none" stroke="var(--ce-ink)" stroke-width="1.2" stroke-linecap="round" stroke-linejoin="round"/></g><text xml:space="preserve" x="162" y="214.12" text-anchor="start" font-family='"Excalifont","Virgil","Segoe Print","Comic Sans MS",ui-rounded,cursive' font-size="11" fill="var(--ce-ink)">read at about a tenth</text><text xml:space="preserve" x="162" y="233.2" text-anchor="start" font-family='"Excalifont","Virgil","Segoe Print","Comic Sans MS",ui-rounded,cursive' font-size="10" fill="var(--ce-ink-muted)">6 000 tok</text><g opacity="0.55"><path d="M671.73 193.84C716.17 197.27 762.15 195.49 839.94 197.15C846.22 196.25 847.95 201.11 849.82 206.96C849.72 214.02 850.55 223.27 852.48 241.45C849.45 242.57 845.76 250.17 839.88 247.74C808.95 250.03 770.85 247.58 671.24 249.94C665.6 248.32 663.19 242.62 664.5 238.09C661.18 227.48 663.29 212.75 662.97 206.01C660.34 196.59 664.37 195.88 671.62 193.73C670.67 196 670.67 196 670.67 196" fill="var(--ce-neutral-2)" stroke="none"/><path d="M672.65 194.95C720.37 194.06 765.66 194.46 842.69 195.53M671.13 196.37C735.25 195.54 799.06 196.36 841.26 196.24M841.33 196C848.58 194.76 851.06 200.1 850.34 202.98M841.46 197.93C845.54 195.76 852.25 200.13 850.22 206.68M849.47 203.77C851.27 216.97 848.05 230.75 851.92 239.68M849.85 205.3C850.48 212.04 850.99 219.82 850.26 239.43M850 239.33C851.22 245.62 845.66 247.98 840.67 248.41M850.53 238.9C851.55 245.78 847.78 249.14 839.63 249.14M840 249.8C771.9 246.43 706.23 246.43 670.39 249.59M840.34 248.02C793.13 248.66 745.65 249.87 671.31 247.45M670.67 248C663.44 248.5 662.05 245.58 663.7 238.76M671.52 247.34C666.22 245.75 662.12 246.51 661.29 237.52M661.96 239.84C662.37 226.84 661.03 212.44 663.76 206.51M662.54 239.43C662.91 226.31 661.58 212.88 662.98 205.32M662 204.67C662.89 200.23 663.43 194.51 670.45 194.27M660.11 204.43C660.5 199.58 665.65 197.61 668.75 196.89M670.67 196C670.67 196 670.67 196 670.67 196M670.67 196C670.67 196 670.67 196 670.67 196" fill="none" stroke="var(--ce-ink)" stroke-width="1.2" stroke-linecap="round" stroke-linejoin="round"/></g><text xml:space="preserve" x="672" y="214.12" text-anchor="start" font-family='"Excalifont","Virgil","Segoe Print","Comic Sans MS",ui-rounded,cursive' font-size="11" fill="var(--ce-ink)">volatile</text><text xml:space="preserve" x="672" y="233.2" text-anchor="start" font-family='"Excalifont","Virgil","Segoe Print","Comic Sans MS",ui-rounded,cursive' font-size="10" fill="var(--ce-ink-muted)">2 200 tok</text><text xml:space="preserve" x="860" y="217.04" text-anchor="start" font-family='"Excalifont","Virgil","Segoe Print","Comic Sans MS",ui-rounded,cursive' font-size="12" fill="var(--ce-ink)">6 000 cached</text><text xml:space="preserve" x="860" y="232.04" text-anchor="start" font-family='"Excalifont","Virgil","Segoe Print","Comic Sans MS",ui-rounded,cursive' font-size="12" fill="var(--ce-ink)">+ 2 200 fresh</text><path d="M662.2 97.69C662.47 134.53 662.28 170.88 661.84 261.74M661.8 97.94C662.27 150.86 662.15 203.53 662 262.13" fill="none" stroke="var(--ce-ink)" stroke-width="1.5" stroke-linecap="round" stroke-linejoin="round" stroke-dasharray="9 7"/><text xml:space="preserve" x="662" y="282.12" text-anchor="middle" font-family='"Excalifont","Virgil","Segoe Print","Comic Sans MS",ui-rounded,cursive' font-size="11" fill="var(--ce-ink)">the cache_control marker goes here</text><text xml:space="preserve" x="40" y="316.12" text-anchor="start" font-family='"Excalifont","Virgil","Segoe Print","Comic Sans MS",ui-rounded,cursive' font-size="11" fill="var(--ce-ink)">Cache read</text><text xml:space="preserve" x="170" y="316.2" text-anchor="start" font-family='"Excalifont","Virgil","Segoe Print","Comic Sans MS",ui-rounded,cursive' font-size="10" fill="var(--ce-ink-muted)">about 10% of the base input price on Anthropic; about 50% on OpenAI.</text><text xml:space="preserve" x="40" y="340.12" text-anchor="start" font-family='"Excalifont","Virgil","Segoe Print","Comic Sans MS",ui-rounded,cursive' font-size="11" fill="var(--ce-ink)">Cache write</text><text xml:space="preserve" x="170" y="340.2" text-anchor="start" font-family='"Excalifont","Virgil","Segoe Print","Comic Sans MS",ui-rounded,cursive' font-size="10" fill="var(--ce-ink-muted)">1.25x input for the five-minute TTL, 2x for the one-hour tier — paid once.</text><text xml:space="preserve" x="40" y="364.12" text-anchor="start" font-family='"Excalifont","Virgil","Segoe Print","Comic Sans MS",ui-rounded,cursive' font-size="11" fill="var(--ce-ink)">Minimum prefix</text><text xml:space="preserve" x="170" y="364.2" text-anchor="start" font-family='"Excalifont","Virgil","Segoe Print","Comic Sans MS",ui-rounded,cursive' font-size="10" fill="var(--ce-ink-muted)">roughly 1k to 4k tokens before a prefix is cacheable at all, model-dependent.</text><text xml:space="preserve" x="40" y="388.12" text-anchor="start" font-family='"Excalifont","Virgil","Segoe Print","Comic Sans MS",ui-rounded,cursive' font-size="11" fill="var(--ce-ink)">Explicit marker</text><text xml:space="preserve" x="170" y="388.2" text-anchor="start" font-family='"Excalifont","Virgil","Segoe Print","Comic Sans MS",ui-rounded,cursive' font-size="10" fill="var(--ce-ink-muted)">without one the boundary is heuristic, and it can move under you.</text><text xml:space="preserve" x="40" y="431.04" text-anchor="start" font-family='"Excalifont","Virgil","Segoe Print","Comic Sans MS",ui-rounded,cursive' font-size="12" fill="var(--ce-ink)">A single edit to the system prompt invalidates the cache for every active session.</text><text xml:space="preserve" x="40" y="453.04" text-anchor="start" font-family='"Excalifont","Virgil","Segoe Print","Comic Sans MS",ui-rounded,cursive' font-size="12" fill="var(--ce-ink-muted)">Which is one more reason to stop changing the prompt casually. Illustrative token counts; check your provider for current rates.</text>
</svg>
